{"accessors":[{"bufferView":1,"componentType":5126,"count":1726,"max":[1.8293912410736084,2.7185261249542236,0.8700209856033325],"min":[-0.1899893879890442,0.46794813871383667,-0.7606430649757385],"type":"VEC3"},{"bufferView":1,"byteOffset":20712,"componentType":5126,"count":1726,"max":[1,1,1],"min":[-1,-1,-1],"type":"VEC3"},{"bufferView":2,"componentType":5126,"count":1726,"max":[1,1,1,1],"min":[0.054901961237192154,0.09803921729326248,0.07450980693101883,1],"type":"VEC4"},{"bufferView":0,"componentType":5125,"count":2676,"max":[1725],"min":[0],"type":"SCALAR"},{"bufferView":1,"byteOffset":41424,"componentType":5126,"count":48,"max":[0.9399625658988953,1.8999892473220825,0.7100002765655518],"min":[-0.05003749206662178,1.8200328350067139,-0.2299952507019043],"type":"VEC3"},{"bufferView":1,"byteOffset":42000,"componentType":5126,"count":48,"max":[1,1,1],"min":[-1,-1,-1],"type":"VEC3"},{"bufferView":2,"byteOffset":27616,"componentType":5126,"count":48,"max":[0.6823529601097107,0.6823529601097107,0.6823529601097107,0.250980406999588],"min":[0.6823529601097107,0.6823529601097107,0.6823529601097107,0.250980406999588],"type":"VEC4"},{"bufferView":0,"byteOffset":10704,"componentType":5125,"count":72,"max":[47],"min":[0],"type":"SCALAR"}],"asset":{"extras":{"author":"sh65gooo (https://sketchfab.com/sh65gooo)","license":"CC-BY-4.0 (http://creativecommons.org/licenses/by/4.0/)","source":"https://sketchfab.com/3d-models/printer-98dfd5e5b71c40f8a80b476e1dce7976","title":"printer"},"generator":"Sketchfab-10.10.1-rc1","version":"2.0"},"bufferViews":[{"buffer":0,"byteLength":10992,"byteOffset":0,"name":"floatBufferViews","target":34963},{"buffer":0,"byteLength":42576,"byteOffset":10992,"byteStride":12,"name":"floatBufferViews","target":34962},{"buffer":0,"byteLength":28384,"byteOffset":53568,"byteStride":16,"name":"floatBufferViews","target":34962}],"buffers":[{"byteLength":81952,"uri":"data:application/octet-stream;base64,"}],"materials":[{"doubleSided":false,"emissiveFactor":[0,0,0],"name":"BlocksPaper","pbrMetallicRoughness":{"baseColorFactor":[1,1,1,1],"metallicFactor":0,"roughnessFactor":0.6}},{"alphaMode":"BLEND","doubleSided":false,"emissiveFactor":[0,0,0],"name":"BlocksGlass","pbrMetallicRoughness":{"baseColorFactor":[0.2,0.2,1,0.3],"metallicFactor":1,"roughnessFactor":0.4}}],"meshes":[{"primitives":[{"attributes":{"COLOR_0":2,"NORMAL":1,"POSITION":0},"indices":3,"material":0,"mode":4}]},{"primitives":[{"attributes":{"COLOR_0":6,"NORMAL":5,"POSITION":4},"indices":7,"material":1,"mode":4}]}],"nodes":[{"children":[1],"name":"RootNode (gltf orientation matrix)","rotation":[-0.7071067811865475,0,0,0.7071067811865476]},{"children":[2],"matrix":[0.1538461595773697,0,0,0,0,0.1538461595773697,0,0,0,0,0.1538461595773697,0,0,0,0,1],"name":"RootNode (model correction matrix)"},{"children":[3],"name":"root"},{"children":[4],"matrix":[1,0,0,0,0,2.220446049250313e-16,1,0,0,-1,2.220446049250313e-16,0,0,0,0,1],"name":"GLTF_SceneRootNode"},{"children":[5],"name":"_2"},{"children":[6],"matrix":[1,0,0,0,0,1,0,0,0,0,1,0,0.44636255502700806,1.6205768585205078,0.08131659030914307,1],"name":"_3"},{"children":[7,9],"matrix":[1,0,0,0,0,1,0,0,0,0,1,0,-0.44636255502700806,-1.6205768585205078,-0.08131659030914307,1],"name":"_4"},{"children":[8],"name":"node_MeshObject-1923445056-PolyPaper16_0"},{"mesh":0,"name":""},{"children":[10],"name":"node_MeshObject1277851072-PolyGlass24_1"},{"mesh":1,"name":""}],"scene":0,"scenes":[{"name":"OSG_Scene","nodes":[0]}]}